<?xml version="1.0" encoding="utf-8"?>
<!-- Generator: Adobe Illustrator 26.5.0, SVG Export Plug-In . SVG Version: 6.00 Build 0)  -->
<svg version="1.1" id="Layer_1" xmlns="http://www.w3.org/2000/svg" xmlns:xlink="http://www.w3.org/1999/xlink" x="0px" y="0px"
	 viewBox="0 0 512 512" style="enable-background:new 0 0 512 512;" xml:space="preserve">
<style type="text/css">
	.st0{fill:#008165;}
	.st1{fill:#E21937;}
</style>
<g id="XMLID_1_">
	<path id="XMLID_5_" class="st0" d="M165.1,228.93c5.75,0,7.86-2.95,7.86-6.59c0-3.79-1.54-6.59-6.45-6.59h-4.49v13.19H165.1z
		 M152.76,208.59h14.87c8.56,0,14.73,5.05,14.73,13.61c0,7.57-6.17,13.89-17.67,13.89h-2.81v10.8h-9.26v-38.29H152.76z"/>
	<path id="XMLID_6_" class="st0" d="M221.49,244.78l2.67-6.59c3.37,1.26,5.89,1.68,10.1,1.68c4.63,0,6.73-1.4,6.73-3.79
		c0-6.17-18.24-4.49-18.24-17.53c0-7.43,7.01-10.52,13.75-10.52c6.03,0,8.98,1.26,11.92,2.67l-2.67,6.45
		c-2.81-0.84-5.19-1.54-8.98-1.54c-3.79,0-5.05,1.4-5.05,3.09c0,5.05,18.52,5.05,18.52,17.25c0,8.42-8,11.64-15.99,11.64
		C227.95,247.44,224.3,246.32,221.49,244.78"/>
	<polygon id="XMLID_7_" class="st0" points="255.16,208.59 264.28,208.59 264.28,224.16 279.43,224.16 279.43,208.59 288.54,208.59 
		288.54,246.88 279.43,246.88 279.43,231.17 264.28,231.17 264.28,246.88 255.16,246.88 	"/>
	<path id="XMLID_10_" class="st0" d="M307.34,229.07l3.79-14.73l3.79,14.73H307.34z M317.44,208.59h-12.62l-12.91,38.29h9.54
		l3.65-11.22h12.06l3.65,11.22h9.54L317.44,208.59z"/>
	<path id="XMLID_13_" class="st0" d="M196.52,229.07l3.79-14.73l3.79,14.73H196.52z M206.62,208.59H194l-12.91,38.29h9.54
		l3.65-11.22h12.06l3.65,11.22h9.54L206.62,208.59z"/>
	<polygon id="XMLID_14_" class="st0" points="19.64,232.29 19.64,208.59 57.93,208.59 57.93,247.02 49.38,247.02 28.2,225.84 
		27.07,224.72 	"/>
	<polygon id="XMLID_15_" class="st1" points="0,256 27.07,228.93 54.29,256 48.11,262.17 16.69,262.17 16.69,272.69 	"/>
	<polygon id="XMLID_16_" class="st0" points="19.64,303.41 43.2,303.41 36.75,296.96 35.77,295.84 57.93,273.67 57.93,264.98 
		19.64,264.98 	"/>
	<polygon id="XMLID_17_" class="st1" points="67.05,323.05 39.84,295.84 67.05,268.76 73.08,274.94 73.08,306.36 83.74,306.36 	"/>
	<polygon id="XMLID_18_" class="st0" points="114.46,303.41 76.03,303.41 76.03,264.98 84.73,264.98 105.91,286.16 106.89,287.28 
		108.01,286.16 114.46,279.71 	"/>
	<polygon id="XMLID_19_" class="st1" points="134.1,256 106.89,283.07 79.82,256 85.85,249.83 117.27,249.83 117.27,239.31 	"/>
	<polygon id="XMLID_20_" class="st0" points="114.46,208.59 114.46,247.02 76.03,247.02 76.03,238.33 97.21,217.14 98.33,216.16 
		97.21,215.04 90.76,208.59 	"/>
	<polygon id="XMLID_21_" class="st1" points="94.12,216.16 67.05,243.24 60.88,237.06 60.88,205.64 50.36,205.64 67.05,188.95 	"/>
	<path id="XMLID_25_" class="st1" d="M167.77,295.14c5.05,0,7.57-1.4,7.57-4.49c0-3.51-2.67-4.91-8.14-4.91h-4.07v9.4H167.77z
		 M166.36,279.29c4.07,0,6.17-0.7,6.17-4.21c0-3.37-2.24-4.63-6.73-4.63h-2.95v8.98h3.51V279.29z M153.46,263.15h13.75
		c9.68,0,14.59,3.51,14.59,10.8c0,3.23-1.96,5.75-3.93,7.01v0.14c2.67,0.98,6.73,3.79,6.73,9.26c0,7.15-4.21,12.2-15.85,12.2h-15.43
		v-39.42H153.46z"/>
	<path id="XMLID_28_" class="st1" d="M206.06,294.72v-4.77l-4.63,0.14c-2.67,0-4.77,0.98-4.77,3.23c0,1.82,1.68,2.52,3.37,2.52
		C201.99,295.84,204.1,295.28,206.06,294.72 M187.83,293.73c0-7.72,7.01-9.26,13.05-9.26h5.33v-1.82c0-2.67-1.68-3.51-5.47-3.51
		c-2.95,0-6.17,0.7-9.12,1.4l-1.82-6.73c3.51-1.4,7.43-2.38,12.34-2.38c9.4,0,13.19,2.67,13.19,9.54v13.47
		c0,0.98,0.98,1.26,2.67,1.26l-0.28,7.01c-0.7,0-1.4,0-2.1,0c-3.65,0-7.57-0.56-8.42-3.23c-2.24,1.68-5.47,3.51-8.7,3.51
		C191.61,302.99,187.83,299.91,187.83,293.73"/>
	<path id="XMLID_29_" class="st1" d="M222.47,272.13h9.26v3.09c1.82-1.4,5.89-3.79,9.96-3.79c9.54,0,10.24,5.19,10.24,12.2v19.08
		h-9.26v-18.24c0-4.21-0.98-4.91-4.07-4.91c-2.81,0-5.33,0.84-6.73,1.68v21.6h-9.26v-30.72H222.47z"/>
	<polygon id="XMLID_30_" class="st1" points="257.82,260.49 267.22,260.49 267.22,283.35 275.64,272.13 285.6,272.13 274.52,286.16 
		287.42,302.43 275.92,302.43 267.22,289.95 267.22,302.43 257.82,302.43 	"/>
	<path id="XMLID_31_" class="st1" d="M304.39,282.93c0-14.03,7.57-20.2,21.46-20.2c5.47,0,8.42,1.12,11.5,2.38l-2.38,6.73
		c-3.65-0.98-5.33-1.4-9.12-1.4c-6.87,0-11.92,3.37-11.92,11.92c0,8.56,5.61,12.48,12.62,12.48c0.84,0,1.68,0,2.38,0v-11.92h9.12
		v17.53c-4.35,1.68-8,2.24-12.62,2.24C312.67,302.71,304.39,296.4,304.39,282.93z"/>
	<path id="XMLID_34_" class="st1" d="M342.41,287.56c0-12.2,6.17-16.13,15.15-16.13c9.26,0,12.91,6.17,12.91,15.15v3.23h-19.08
		c0,4.77,3.65,5.61,8.28,5.61c1.96,0,5.33-0.56,8.42-1.26l1.4,6.73c-3.23,1.12-7.57,1.68-11.08,1.68
		C348.72,302.71,342.41,299.48,342.41,287.56z M361.35,284.05c0.14-3.65-1.4-6.17-4.35-6.17c-3.09,0-5.05,2.24-5.19,6.17H361.35z"/>
	<path id="XMLID_37_" class="st1" d="M373.97,287.42c0-9.96,6.17-15.99,15.43-15.99c10.52,0,15.15,6.03,15.15,15.71
		c0,10.24-6.59,15.57-15.71,15.57C379.3,302.71,373.97,296.82,373.97,287.42z M395.43,287.14c0-4.77-1.12-8.56-6.17-8.56
		c-4.91,0-6.17,3.65-6.17,8.56c0,5.19,1.54,8.28,6.31,8.28C394.31,295.42,395.43,292.19,395.43,287.14z"/>
	<path id="XMLID_38_" class="st1" d="M410.02,272.13H419v4.07c1.4-1.96,4.21-4.63,7.57-4.63c1.68,0,2.81,0.14,4.07,0.56l-1.12,7.57
		c-1.68-0.28-2.38-0.28-3.93-0.28c-2.67,0-5.33,1.26-6.59,2.52v20.34h-8.98V272.13z"/>
	<path id="XMLID_41_" class="st1" d="M434.71,312.95l1.4-7.72c3.65,1.12,7.43,1.54,9.68,1.54c4.35,0,6.87-0.98,6.87-5.19v-0.42
		c-1.12,0.7-2.81,1.26-4.91,1.26c-8.42,0-15.01-2.52-15.01-15.01c0-10.24,7.43-15.85,16.41-15.85c4.35,0,8,0.42,12.62,1.54v29.46
		c0,8.84-8.28,12.34-14.73,12.34C442.28,314.63,438.08,314.21,434.71,312.95z M452.52,295.14v-15.71c-0.98-0.28-2.1-0.56-3.65-0.56
		c-5.19,0-7.29,3.23-7.29,8.42c0,6.45,2.67,8.28,6.73,8.28C449.86,295.7,451.12,295.56,452.52,295.14z"/>
	<path id="XMLID_44_" class="st1" d="M468.8,258.52h8.42l0.14,8.7h-8.56V258.52z M468.66,272.13h8.98v29.88h-8.98V272.13z"/>
	<path id="XMLID_47_" class="st1" d="M482.82,293.59c0-7.57,6.87-9.12,12.62-9.12h5.19v-1.82c0-2.67-1.68-3.37-5.33-3.37
		c-2.95,0-6.03,0.56-8.84,1.26l-1.82-6.59c3.37-1.26,7.29-2.38,11.92-2.38c9.12,0,12.76,2.67,12.76,9.4v13.33
		c0,0.98,0.98,1.26,2.67,1.26l-0.28,6.87c-0.7,0-1.4,0-2.1,0c-3.51,0-7.29-0.56-8.14-3.23c-2.1,1.68-5.19,3.37-8.42,3.37
		C486.47,302.57,482.82,299.48,482.82,293.59z M500.5,294.44v-4.77l-4.49,0.14c-2.67,0-4.63,0.98-4.63,3.09
		c0,1.82,1.68,2.52,3.23,2.52C496.57,295.56,498.53,295.14,500.5,294.44z"/>
</g>
</svg>
